<svg width="139" height="65" viewBox="0 0 139 65" fill="none" xmlns="http://www.w3.org/2000/svg">
<g clip-path="url(#clip0_2001_488)">
<path d="M54.1197 21.5175H73.485V23.8292H56.6289V36.6469H70.6423V38.9586H56.6289V53.9057H54.1113V21.5175H54.1197Z" fill="#0A1C21"/>
<path d="M77.4028 30.4493H79.4953L79.7787 35.4952C80.7124 32.6699 82.5714 30.4493 87.0897 30.4493H88.2984V32.7196H86.5728C81.0291 32.7196 79.7787 37.2518 79.7787 42.0242V53.914H77.4028V30.4493Z" fill="#0A1C21"/>
<path d="M91.0415 42.0159C91.0415 35.0727 95.4681 30.1676 101.937 30.1676C108.406 30.1676 112.649 34.2855 112.783 41.3697V42.2065H93.5091V42.6208C93.5091 48.081 96.9103 52.058 102.171 52.058C106.08 52.058 109.198 49.7878 110.132 46.1339H112.549C111.524 50.8566 107.522 54.1874 102.354 54.1874C95.6515 54.1874 91.0415 49.3735 91.0415 42.0159ZM110.273 40.218C109.898 35.081 106.597 32.2556 101.987 32.2556C97.6605 32.2556 94.0259 35.3544 93.6508 40.218H110.273Z" fill="#0A1C21"/>
<path d="M117.776 42.2065C117.776 35.081 122.336 30.1759 128.997 30.1759C134.349 30.1759 138.033 33.1339 139.009 37.9975H136.541C135.699 34.4844 132.906 32.2556 128.955 32.2556C123.736 32.2556 120.202 36.3735 120.202 42.2065C120.202 48.0395 123.736 52.0663 128.955 52.0663C132.915 52.0663 135.707 49.8458 136.541 46.3244H139.009C138.075 51.1383 134.307 54.1874 128.955 54.1874C122.252 54.1874 117.784 49.4232 117.784 42.1982L117.776 42.2065Z" fill="#0A1C21"/>
<path d="M37.4217 27.9222H18.6899V46.5398H37.4217V27.9222Z" fill="#0A1C21"/>
<path d="M18.7317 46.3824H0V65H18.7317V46.3824Z" fill="#0A1C21"/>
<path d="M18.7317 18.4602H0V37.0778H18.7317V18.4602Z" fill="#0A1C21"/>
<path d="M37.4217 0H18.6899V18.6176H37.4217V0Z" fill="#0A1C21"/>
<path d="M18.69 46.5398C18.69 36.1663 9.16992 37.0529 9.16992 37.0529L21.7494 32.1479L18.69 46.5398Z" fill="#0A1C21"/>
<path d="M28.3354 18.6093C17.8983 18.6093 18.7903 28.0714 18.7903 28.0714L18.7319 18.4602L28.3354 18.6093Z" fill="#0A1C21"/>
</g>
<defs>
<clipPath id="clip0_2001_488">
<rect width="139" height="65" fill="white"/>
</clipPath>
</defs>
</svg>
